<mxfile host="app.diagrams.net" modified="2023-08-02T11:01:43.922Z" agent="Mozilla/5.0 (X11; Ubuntu; Linux x86_64; rv:109.0) Gecko/20100101 Firefox/115.0" etag="-YuAMyKnEqzW3GZsB62K" version="21.6.6" type="github">
  <diagram name="Page-1" id="M6_NjuZCdOAnynNvaj23">
    <mxGraphModel dx="854" dy="711" grid="1" gridSize="10" guides="1" tooltips="1" connect="1" arrows="1" fold="1" page="1" pageScale="1" pageWidth="850" pageHeight="1100" math="0" shadow="0">
      <root>
        <mxCell id="0" />
        <mxCell id="1" parent="0" />
        <mxCell id="ARfSRFUB24jsZBEiZLBD-12" value="" style="edgeStyle=orthogonalEdgeStyle;rounded=0;orthogonalLoop=1;jettySize=auto;html=1;" edge="1" parent="1" source="ARfSRFUB24jsZBEiZLBD-1" target="ARfSRFUB24jsZBEiZLBD-3">
          <mxGeometry relative="1" as="geometry" />
        </mxCell>
        <mxCell id="ARfSRFUB24jsZBEiZLBD-1" value="&lt;div&gt;Start&lt;/div&gt;" style="ellipse;whiteSpace=wrap;html=1;fillColor=#f8cecc;strokeColor=#b85450;" vertex="1" parent="1">
          <mxGeometry x="120" y="40" width="120" height="80" as="geometry" />
        </mxCell>
        <mxCell id="ARfSRFUB24jsZBEiZLBD-13" value="" style="edgeStyle=orthogonalEdgeStyle;rounded=0;orthogonalLoop=1;jettySize=auto;html=1;" edge="1" parent="1" source="ARfSRFUB24jsZBEiZLBD-3" target="ARfSRFUB24jsZBEiZLBD-4">
          <mxGeometry relative="1" as="geometry" />
        </mxCell>
        <mxCell id="ARfSRFUB24jsZBEiZLBD-3" value="string[] elements" style="shape=parallelogram;perimeter=parallelogramPerimeter;whiteSpace=wrap;html=1;fixedSize=1;" vertex="1" parent="1">
          <mxGeometry x="120" y="160" width="120" height="60" as="geometry" />
        </mxCell>
        <mxCell id="ARfSRFUB24jsZBEiZLBD-14" value="" style="edgeStyle=orthogonalEdgeStyle;rounded=0;orthogonalLoop=1;jettySize=auto;html=1;" edge="1" parent="1" source="ARfSRFUB24jsZBEiZLBD-4" target="ARfSRFUB24jsZBEiZLBD-5">
          <mxGeometry relative="1" as="geometry" />
        </mxCell>
        <mxCell id="ARfSRFUB24jsZBEiZLBD-4" value="&lt;div&gt;int size = 0;&lt;/div&gt;" style="rounded=0;whiteSpace=wrap;html=1;" vertex="1" parent="1">
          <mxGeometry x="120" y="270" width="120" height="60" as="geometry" />
        </mxCell>
        <mxCell id="ARfSRFUB24jsZBEiZLBD-8" value="yes" style="edgeStyle=orthogonalEdgeStyle;rounded=0;orthogonalLoop=1;jettySize=auto;html=1;" edge="1" parent="1" source="ARfSRFUB24jsZBEiZLBD-5" target="ARfSRFUB24jsZBEiZLBD-6">
          <mxGeometry relative="1" as="geometry" />
        </mxCell>
        <mxCell id="ARfSRFUB24jsZBEiZLBD-17" value="no" style="edgeStyle=orthogonalEdgeStyle;rounded=0;orthogonalLoop=1;jettySize=auto;html=1;" edge="1" parent="1" source="ARfSRFUB24jsZBEiZLBD-5" target="ARfSRFUB24jsZBEiZLBD-16">
          <mxGeometry relative="1" as="geometry" />
        </mxCell>
        <mxCell id="ARfSRFUB24jsZBEiZLBD-5" value="int i = 0; i &amp;lt; elements.Length; i++" style="shape=hexagon;perimeter=hexagonPerimeter2;whiteSpace=wrap;html=1;fixedSize=1;" vertex="1" parent="1">
          <mxGeometry x="80" y="360" width="200" height="80" as="geometry" />
        </mxCell>
        <mxCell id="ARfSRFUB24jsZBEiZLBD-9" value="yes" style="edgeStyle=orthogonalEdgeStyle;rounded=0;orthogonalLoop=1;jettySize=auto;html=1;" edge="1" parent="1" source="ARfSRFUB24jsZBEiZLBD-6" target="ARfSRFUB24jsZBEiZLBD-7">
          <mxGeometry relative="1" as="geometry" />
        </mxCell>
        <mxCell id="ARfSRFUB24jsZBEiZLBD-11" value="no" style="edgeStyle=orthogonalEdgeStyle;rounded=1;orthogonalLoop=1;jettySize=auto;html=1;" edge="1" parent="1" source="ARfSRFUB24jsZBEiZLBD-6">
          <mxGeometry relative="1" as="geometry">
            <mxPoint x="80" y="400" as="targetPoint" />
          </mxGeometry>
        </mxCell>
        <mxCell id="ARfSRFUB24jsZBEiZLBD-6" value="elements[i].Length &amp;lt;= 3" style="rhombus;whiteSpace=wrap;html=1;" vertex="1" parent="1">
          <mxGeometry x="95" y="460" width="170" height="80" as="geometry" />
        </mxCell>
        <mxCell id="ARfSRFUB24jsZBEiZLBD-10" style="edgeStyle=orthogonalEdgeStyle;rounded=1;orthogonalLoop=1;jettySize=auto;html=1;exitX=0;exitY=0.5;exitDx=0;exitDy=0;entryX=0;entryY=0.5;entryDx=0;entryDy=0;" edge="1" parent="1" source="ARfSRFUB24jsZBEiZLBD-7" target="ARfSRFUB24jsZBEiZLBD-5">
          <mxGeometry relative="1" as="geometry">
            <mxPoint x="80.0044827586207" y="599.62" as="sourcePoint" />
            <mxPoint x="40" y="399.86" as="targetPoint" />
          </mxGeometry>
        </mxCell>
        <mxCell id="ARfSRFUB24jsZBEiZLBD-7" value="size++;" style="rounded=0;whiteSpace=wrap;html=1;" vertex="1" parent="1">
          <mxGeometry x="120" y="570" width="120" height="60" as="geometry" />
        </mxCell>
        <mxCell id="ARfSRFUB24jsZBEiZLBD-22" value="" style="edgeStyle=orthogonalEdgeStyle;rounded=0;orthogonalLoop=1;jettySize=auto;html=1;" edge="1" parent="1" source="ARfSRFUB24jsZBEiZLBD-16" target="ARfSRFUB24jsZBEiZLBD-21">
          <mxGeometry relative="1" as="geometry" />
        </mxCell>
        <mxCell id="ARfSRFUB24jsZBEiZLBD-16" value="&lt;div&gt;string[] result = new string[size];&lt;/div&gt;&lt;div&gt;int index = 0;&lt;br&gt;&lt;/div&gt;" style="rounded=0;whiteSpace=wrap;html=1;" vertex="1" parent="1">
          <mxGeometry x="330" y="370" width="120" height="60" as="geometry" />
        </mxCell>
        <mxCell id="ARfSRFUB24jsZBEiZLBD-26" value="yes" style="edgeStyle=orthogonalEdgeStyle;rounded=0;orthogonalLoop=1;jettySize=auto;html=1;exitX=0.5;exitY=1;exitDx=0;exitDy=0;entryX=0.5;entryY=0;entryDx=0;entryDy=0;" edge="1" parent="1" source="ARfSRFUB24jsZBEiZLBD-21" target="ARfSRFUB24jsZBEiZLBD-23">
          <mxGeometry relative="1" as="geometry" />
        </mxCell>
        <mxCell id="ARfSRFUB24jsZBEiZLBD-32" value="no" style="edgeStyle=orthogonalEdgeStyle;rounded=0;orthogonalLoop=1;jettySize=auto;html=1;exitX=0.5;exitY=0;exitDx=0;exitDy=0;entryX=0.5;entryY=0.875;entryDx=0;entryDy=0;entryPerimeter=0;" edge="1" parent="1" source="ARfSRFUB24jsZBEiZLBD-21" target="ARfSRFUB24jsZBEiZLBD-30">
          <mxGeometry relative="1" as="geometry" />
        </mxCell>
        <mxCell id="ARfSRFUB24jsZBEiZLBD-21" value="int i = 0; i &amp;lt; elements.Length; i++" style="shape=hexagon;perimeter=hexagonPerimeter2;whiteSpace=wrap;html=1;fixedSize=1;" vertex="1" parent="1">
          <mxGeometry x="500" y="360" width="200" height="80" as="geometry" />
        </mxCell>
        <mxCell id="ARfSRFUB24jsZBEiZLBD-27" value="yes" style="edgeStyle=orthogonalEdgeStyle;rounded=0;orthogonalLoop=1;jettySize=auto;html=1;" edge="1" parent="1" source="ARfSRFUB24jsZBEiZLBD-23" target="ARfSRFUB24jsZBEiZLBD-24">
          <mxGeometry relative="1" as="geometry" />
        </mxCell>
        <mxCell id="ARfSRFUB24jsZBEiZLBD-29" value="no" style="edgeStyle=orthogonalEdgeStyle;rounded=1;orthogonalLoop=1;jettySize=auto;html=1;" edge="1" parent="1" source="ARfSRFUB24jsZBEiZLBD-23">
          <mxGeometry x="-0.8667" relative="1" as="geometry">
            <mxPoint x="500" y="400" as="targetPoint" />
            <Array as="points">
              <mxPoint x="480" y="500" />
              <mxPoint x="480" y="400" />
            </Array>
            <mxPoint as="offset" />
          </mxGeometry>
        </mxCell>
        <mxCell id="ARfSRFUB24jsZBEiZLBD-23" value="elements[i].Length &amp;lt;= 3" style="rhombus;whiteSpace=wrap;html=1;" vertex="1" parent="1">
          <mxGeometry x="510" y="460" width="180" height="80" as="geometry" />
        </mxCell>
        <mxCell id="ARfSRFUB24jsZBEiZLBD-28" value="" style="edgeStyle=orthogonalEdgeStyle;orthogonalLoop=1;jettySize=auto;html=1;rounded=1;" edge="1" parent="1" source="ARfSRFUB24jsZBEiZLBD-24">
          <mxGeometry x="-0.0019" relative="1" as="geometry">
            <mxPoint x="500" y="400" as="targetPoint" />
            <Array as="points">
              <mxPoint x="480" y="600" />
              <mxPoint x="480" y="400" />
            </Array>
            <mxPoint as="offset" />
          </mxGeometry>
        </mxCell>
        <mxCell id="ARfSRFUB24jsZBEiZLBD-24" value="&lt;div&gt;result[index] = elements[i];&lt;/div&gt;&lt;div&gt;index++;&lt;br&gt;&lt;/div&gt;" style="rounded=0;whiteSpace=wrap;html=1;" vertex="1" parent="1">
          <mxGeometry x="510" y="570" width="180" height="60" as="geometry" />
        </mxCell>
        <mxCell id="ARfSRFUB24jsZBEiZLBD-33" value="" style="edgeStyle=orthogonalEdgeStyle;rounded=0;orthogonalLoop=1;jettySize=auto;html=1;" edge="1" parent="1" source="ARfSRFUB24jsZBEiZLBD-30" target="ARfSRFUB24jsZBEiZLBD-31">
          <mxGeometry relative="1" as="geometry" />
        </mxCell>
        <mxCell id="ARfSRFUB24jsZBEiZLBD-30" value="result" style="shape=document;whiteSpace=wrap;html=1;boundedLbl=1;" vertex="1" parent="1">
          <mxGeometry x="540" y="260" width="120" height="80" as="geometry" />
        </mxCell>
        <mxCell id="ARfSRFUB24jsZBEiZLBD-31" value="Finish" style="ellipse;whiteSpace=wrap;html=1;fillColor=#dae8fc;strokeColor=#6c8ebf;" vertex="1" parent="1">
          <mxGeometry x="540" y="150" width="120" height="80" as="geometry" />
        </mxCell>
      </root>
    </mxGraphModel>
  </diagram>
</mxfile>
